<svg aria-hidden="true" style="position: absolute; width: 0; height: 0; overflow: hidden;" version="1.1" xmlns="http://www.w3.org/2000/svg" xmlns:xlink="http://www.w3.org/1999/xlink">
<defs>
<symbol id="icon-icon-catalog" viewBox="0 0 48 32">
<path d="M2.667 0c0.982 0 1.778 0.796 1.778 1.778s-0.796 1.778-1.778 1.778c-0.982 0-1.778-0.796-1.778-1.778s0.796-1.778 1.778-1.778z"></path>
<path d="M13.333 0h32c0.982 0 1.778 0.796 1.778 1.778s-0.796 1.778-1.778 1.778h-32c-0.982 0-1.778-0.796-1.778-1.778s0.796-1.778 1.778-1.778z"></path>
<path d="M2.667 14.222c0.982 0 1.778 0.796 1.778 1.778s-0.796 1.778-1.778 1.778c-0.982 0-1.778-0.796-1.778-1.778s0.796-1.778 1.778-1.778z"></path>
<path d="M13.333 14.222h32c0.982 0 1.778 0.796 1.778 1.778s-0.796 1.778-1.778 1.778h-32c-0.982 0-1.778-0.796-1.778-1.778s0.796-1.778 1.778-1.778z"></path>
<path d="M2.667 28.444c0.982 0 1.778 0.796 1.778 1.778s-0.796 1.778-1.778 1.778c-0.982 0-1.778-0.796-1.778-1.778s0.796-1.778 1.778-1.778z"></path>
<path d="M13.333 28.444h32c0.982 0 1.778 0.796 1.778 1.778s-0.796 1.778-1.778 1.778h-32c-0.982 0-1.778-0.796-1.778-1.778s0.796-1.778 1.778-1.778z"></path>
</symbol>
</defs>
</svg>
