<!-- Generated by IcoMoon.io -->
<svg version="1.1" xmlns="http://www.w3.org/2000/svg" width="32" height="32" viewBox="0 0 32 32">
<path fill="#fff" d="M25.333 28c0.736 0 1.333-0.597 1.333-1.333v-14.361c-0.67-4.687-4.795-8.973-9.667-8.973h-2c-5.339 0-9.667 4.328-9.667 9.667v5.333c0 5.339 4.328 9.667 9.667 9.667h10.333z"></path>
<path fill="#1452cc" d="M15 10c-1.657 0-3 1.343-3 3v5.333c0 1.657 1.343 3 3 3h5v-2.667h-4v-4h8v10.667h-9c-3.866 0-7-3.134-7-7v-5.333c0-3.866 3.134-7 7-7h2c3.527 0 6.444 2.608 6.929 6h-4.1c-0.412-1.165-1.523-2-2.829-2h-2z"></path>
</svg>
