<svg aria-hidden="true" style="position: absolute; width: 0; height: 0; overflow: hidden;"
  version="1.1" xmlns="http://www.w3.org/2000/svg" xmlns:xlink="http://www.w3.org/1999/xlink">
  <defs>

    <!-- HOME -->
    <symbol id="home" viewBox="0 0 32 32">
      <path
        d="M16.612 2.214c-0.17-0.133-0.386-0.214-0.621-0.214s-0.452 0.080-0.624 0.215l0.002-0.002-14.37 11.206 1.243 1.572 1.757-1.37v12.379c0.002 1.104 0.896 1.998 2 2h20c1.104-0.002 1.998-0.896 2-2v-12.37l1.757 1.37 1.243-1.572zM18 26h-4v-8h4zM20 26v-8c-0.001-1.104-0.896-1.999-2-2h-4c-1.104 0.001-1.999 0.896-2 2v8h-6v-13.938l10-7.79 10 7.801v13.928z"></path>
    </symbol>

    <!-- BASKET -->
    <symbol id="basket" viewBox="0 0 32 32">
      <path
        d="M31.12 9.52c-0.64-0.72-1.52-1.2-2.48-1.2h-12.32c-0.4 0-0.8 0.32-0.8 0.8s0.4 0.8 0.8 0.8h12.32c0.48 0 0.96 0.24 1.28 0.56 0.32 0.4 0.48 0.88 0.32 1.36l-0.72 4h-8.8c-0.4 0-0.8 0.32-0.8 0.8s0.4 0.8 0.8 0.8h8.56l-0.72 3.84c-0.080 0.56-0.64 0.96-1.2 0.96h-15.36c-0.56 0-1.040-0.4-1.2-0.96l-3.12-17.36c-0.080-0.4-0.4-0.64-0.8-0.64h-6.16c-0.4 0-0.8 0.32-0.8 0.8s0.4 0.8 0.8 0.8h5.52l3.040 16.8c0.16 1.12 0.96 1.92 2 2.24-0.4 0.56-0.72 1.28-0.72 2.080 0 2 1.6 3.6 3.6 3.6s3.6-1.6 3.6-3.6c0-0.72-0.24-1.44-0.64-2h4.88c-0.4 0.56-0.64 1.28-0.64 2 0 2 1.6 3.6 3.6 3.6s3.6-1.6 3.6-3.6c0-0.8-0.24-1.52-0.64-2.080 1.040-0.24 1.92-1.12 2.16-2.24l1.76-9.44c0.16-0.96-0.080-1.92-0.72-2.72zM16.16 25.92c0 1.12-0.88 2-2 2s-2-0.88-2-2c0-1.12 0.88-2 2-2s2 0.88 2 2zM25.040 27.92c-1.12 0-2-0.88-2-2s0.88-2 2-2c1.12 0 2 0.88 2 2s-0.88 2-2 2z"></path>
    </symbol>

    <!-- CATALOG -->
    <symbol id="catalog" viewBox="0 0 48 32">
      <path
        d="M2.667 0c0.982 0 1.778 0.796 1.778 1.778s-0.796 1.778-1.778 1.778c-0.982 0-1.778-0.796-1.778-1.778s0.796-1.778 1.778-1.778z"></path>
      <path
        d="M13.333 0h32c0.982 0 1.778 0.796 1.778 1.778s-0.796 1.778-1.778 1.778h-32c-0.982 0-1.778-0.796-1.778-1.778s0.796-1.778 1.778-1.778z"></path>
      <path
        d="M2.667 14.222c0.982 0 1.778 0.796 1.778 1.778s-0.796 1.778-1.778 1.778c-0.982 0-1.778-0.796-1.778-1.778s0.796-1.778 1.778-1.778z"></path>
      <path
        d="M13.333 14.222h32c0.982 0 1.778 0.796 1.778 1.778s-0.796 1.778-1.778 1.778h-32c-0.982 0-1.778-0.796-1.778-1.778s0.796-1.778 1.778-1.778z"></path>
      <path
        d="M2.667 28.444c0.982 0 1.778 0.796 1.778 1.778s-0.796 1.778-1.778 1.778c-0.982 0-1.778-0.796-1.778-1.778s0.796-1.778 1.778-1.778z"></path>
      <path
        d="M13.333 28.444h32c0.982 0 1.778 0.796 1.778 1.778s-0.796 1.778-1.778 1.778h-32c-0.982 0-1.778-0.796-1.778-1.778s0.796-1.778 1.778-1.778z"></path>
    </symbol>


    <!-- PROFILE -->
    <symbol id="profile" viewBox="0 0 32 32">
      <path
        d="M16 16c3.866 0 7-3.134 7-7s-3.134-7-7-7c-3.866 0-7 3.134-7 7v0c0 3.866 3.134 7 7 7v0zM16 4c2.761 0 5 2.239 5 5s-2.239 5-5 5c-2.761 0-5-2.239-5-5v0c0-2.761 2.239-5 5-5v0z"></path>
      <path
        d="M17 18h-2c-6.075 0-11 4.925-11 11v0c0 0.552 0.448 1 1 1v0h22c0.552 0 1-0.448 1-1v0c0-6.075-4.925-11-11-11v0zM6.060 28c0.52-4.52 4.324-7.998 8.94-8h2c4.616 0.002 8.42 3.48 8.936 7.958l0.004 0.042z"></path>
    </symbol>
    <!-- HEART -->
    <symbol id="heart" viewBox="0 0 32 32">
      <path
        d="M29.415 4.545c-1.676-1.676-3.894-2.591-6.262-2.591s-4.593 0.923-6.268 2.598l-0.875 0.875-0.889-0.889c-1.676-1.676-3.908-2.605-6.275-2.605-2.361 0-4.586 0.923-6.255 2.591-1.676 1.676-2.598 3.901-2.591 6.268 0 2.368 0.929 4.586 2.605 6.262l12.74 12.74c0.176 0.176 0.414 0.271 0.644 0.271s0.468-0.088 0.644-0.265l12.767-12.72c1.676-1.676 2.598-3.901 2.598-6.268 0.007-2.368-0.909-4.593-2.585-6.268zM28.113 15.786l-12.123 12.075-12.096-12.096c-1.33-1.33-2.062-3.094-2.062-4.973s0.726-3.643 2.056-4.966c1.323-1.323 3.087-2.056 4.959-2.056 1.879 0 3.65 0.733 4.979 2.062l1.533 1.533c0.36 0.36 0.936 0.36 1.296 0l1.52-1.52c1.33-1.33 3.1-2.062 4.973-2.062s3.636 0.733 4.966 2.056c1.33 1.33 2.056 3.094 2.056 4.973 0.007 1.879-0.726 3.643-2.056 4.973z"></path>
    </symbol>

    <!-- SEARCH -->
    <symbol id="search" viewBox="0 0 32 32">
      <path
        d="M13.44 1.92c-6.015 0-10.88 4.865-10.88 10.88s4.865 10.88 10.88 10.88c2.147 0 4.135-0.63 5.82-1.7l7.86 7.86 2.72-2.72-7.76-7.74c1.395-1.83 2.24-4.098 2.24-6.58 0-6.015-4.865-10.88-10.88-10.88zM13.44 4.48c4.607 0 8.32 3.713 8.32 8.32s-3.712 8.32-8.32 8.32c-4.607 0-8.32-3.712-8.32-8.32s3.713-8.32 8.32-8.32z"></path>
    </symbol>
    <!-- PHONE -->
    <symbol id="phone" viewBox="0 0 32 32">
      <path
        d="M23 31h-14c-1.657 0-3-1.343-3-3v0-24c0-1.657 1.343-3 3-3v0h14c1.657 0 3 1.343 3 3v0 24c0 1.657-1.343 3-3 3v0zM9 3c-0.552 0-1 0.448-1 1v0 24c0 0.552 0.448 1 1 1v0h14c0.552 0 1-0.448 1-1v0-24c0-0.552-0.448-1-1-1v0z"></path>
      <path d="M25 7h-18c-0.552 0-1-0.448-1-1s0.448-1 1-1v0h18c0.552 0 1 0.448 1 1s-0.448 1-1 1v0z"></path>
      <path d="M25 25h-18c-0.552 0-1-0.448-1-1s0.448-1 1-1v0h18c0.552 0 1 0.448 1 1s-0.448 1-1 1v0z"></path>
      <path d="M15 26h2v2h-2v-2z"></path>
    </symbol>
    <!-- SPEAKER -->
    <symbol id="speaker" viewBox="0 0 32 32">
      <path
        d="M16 25.252c-2.946 0-5.333-2.388-5.333-5.333s2.388-5.333 5.333-5.333c2.945 0 5.333 2.388 5.333 5.333s-2.388 5.333-5.333 5.333zM16 22.585c1.473 0 2.667-1.194 2.667-2.667s-1.194-2.667-2.667-2.667-2.667 1.194-2.667 2.667c0 1.473 1.194 2.667 2.667 2.667z"></path>
      <path
        d="M16 12.059c1.473 0 2.667-1.194 2.667-2.667s-1.194-2.667-2.667-2.667c-1.473 0-2.667 1.194-2.667 2.667s1.194 2.667 2.667 2.667z"></path>
      <path
        d="M9.333 1.333h13.333c2.209 0 4 1.791 4 4v21.333c0 2.209-1.791 4-4 4h-13.333c-2.209 0-4-1.791-4-4v-21.333c0-2.209 1.791-4 4-4zM22.667 4h-13.333c-0.736 0-1.333 0.597-1.333 1.333v21.333c0 0.736 0.597 1.333 1.333 1.333h13.333c0.736 0 1.333-0.597 1.333-1.333v-21.333c0-0.736-0.597-1.333-1.333-1.333z"></path>
    </symbol>
    <!-- COMPUTER -->
    <symbol id="computer" viewBox="0 0 32 32">
      <path
        d="M29.333 28h-26.667c-1.471 0-2.667-1.249-2.667-2.785v-19.764c0-1.535 1.196-2.785 2.667-2.785h26.667c1.471 0 2.667 1.249 2.667 2.785v19.764c0 1.535-1.196 2.785-2.667 2.785zM2.667 4c-0.735 0-1.333 0.651-1.333 1.451v19.764c0 0.8 0.598 1.451 1.333 1.451h26.667c0.735 0 1.333-0.651 1.333-1.451v-19.764c0-0.8-0.598-1.451-1.333-1.451h-26.667z"></path>
      <path
        d="M25.333 30.667h-18.667c-0.368 0-0.667-0.299-0.667-0.667s0.299-0.667 0.667-0.667h18.667c0.368 0 0.667 0.299 0.667 0.667s-0.299 0.667-0.667 0.667z"></path>
      <path
        d="M16 30.667c-0.368 0-0.667-0.299-0.667-0.667v-2.667c0-0.368 0.299-0.667 0.667-0.667s0.667 0.299 0.667 0.667v2.667c0 0.368-0.299 0.667-0.667 0.667z"></path>
      <path
        d="M17.333 24.667c0 0.736-0.597 1.333-1.333 1.333s-1.333-0.597-1.333-1.333c0-0.736 0.597-1.333 1.333-1.333s1.333 0.597 1.333 1.333z"></path>
      <path d="M0.667 21.333h30.667v1.333h-30.667v-1.333z"></path>
    </symbol>
    <!-- FAVICON -->
    <symbol id="favicon" viewBox="0 0 32 32">
      <path fill="#fff" style="fill: var(--color1, #fff)"
        d="M25.333 28c0.736 0 1.333-0.597 1.333-1.333v-14.361c-0.67-4.687-4.795-8.973-9.667-8.973h-2c-5.339 0-9.667 4.328-9.667 9.667v5.333c0 5.339 4.328 9.667 9.667 9.667h10.333z"></path>
      <path fill="#1452cc" style="fill: var(--color2, #1452cc)"
        d="M15 10c-1.657 0-3 1.343-3 3v5.333c0 1.657 1.343 3 3 3h5v-2.667h-4v-4h8v10.667h-9c-3.866 0-7-3.134-7-7v-5.333c0-3.866 3.134-7 7-7h2c3.527 0 6.444 2.608 6.929 6h-4.1c-0.412-1.165-1.523-2-2.829-2h-2z"></path>
    </symbol>
    <!-- BACK -->
    <symbol id="back" viewBox="0 0 32 32">
      <path
        d="M22.063 28.125c-0 0-0 0-0 0-0.259 0-0.493-0.105-0.663-0.274l-11.556-11.556c-0.17-0.17-0.274-0.404-0.274-0.663s0.105-0.493 0.274-0.663l11.556-11.556c0.17-0.17 0.404-0.275 0.663-0.275 0.518 0 0.938 0.42 0.938 0.938 0 0.259-0.105 0.493-0.274 0.663l-10.893 10.893 10.893 10.893c0.17 0.17 0.275 0.404 0.275 0.663 0 0.518-0.42 0.938-0.938 0.938-0 0-0 0-0 0h0z"></path>
    </symbol>

    <!-- FILTER -->
    <symbol id="filter" viewBox="0 0 32 32">
      <path
        d="M18 28h-4c-1.105 0-2-0.895-2-2v0-7.59l-7.41-7.41c-0.362-0.36-0.588-0.859-0.59-1.41v-3.59c0-1.105 0.895-2 2-2v0h20c1.105 0 2 0.895 2 2v0 3.59c-0.002 0.551-0.227 1.050-0.59 1.41l-7.41 7.41v7.59c0 1.105-0.895 2-2 2v0zM6 6v3.59l8 8v8.41h4v-8.41l8-8v-3.59z"></path>
    </symbol>

    <symbol id="arrows" viewBox="0 0 32 32">
      <path d="M27.6 20.6l-3.6 3.6v-20.2h-2v20.2l-3.6-3.6-1.4 1.4 6 6 6-6z"></path>
      <path d="M9 4l-6 6 1.4 1.4 3.6-3.6v20.2h2v-20.2l3.6 3.6 1.4-1.4z"></path>
    </symbol>

    <symbol id="arrow" viewBox="0 0 32 32">
      <path fill="none" stroke-linejoin="round" stroke-linecap="round" stroke-miterlimit="4"
        stroke-width="2.6667" stroke="#595959" style="stroke: var(--color1, #595959)"
        d="M12 24l8-8-8-8"></path>
    </symbol>

    <symbol id="console" viewBox="0 0 32 32">
      <path
        d="M0.5 15.71c0-5.086 4.123-9.21 9.21-9.21h12.581c5.086 0 9.21 4.123 9.21 9.21v2.453c0 3.732-3.025 6.757-6.757 6.757-1.396 0-2.719-0.624-3.606-1.702l-0.916-1.113c-0.677-0.822-1.686-1.299-2.752-1.299h-2.938c-1.065 0-2.074 0.476-2.752 1.299l-0.916 1.113c-0.887 1.077-2.21 1.702-3.606 1.702-3.732 0-6.757-3.025-6.757-6.757v-2.453zM9.71 7.5c-4.534 0-8.21 3.676-8.21 8.21v2.453c0 3.18 2.578 5.757 5.757 5.757 1.097 0 2.137-0.491 2.834-1.337l0.916-1.113c0.867-1.053 2.159-1.663 3.523-1.663h2.938c1.364 0 2.656 0.61 3.524 1.663l0.916 1.113c0.697 0.847 1.737 1.337 2.834 1.337 3.18 0 5.757-2.578 5.757-5.757v-2.453c0-4.534-3.676-8.21-8.21-8.21h-12.581zM24.226 12.339c-0.258 0-0.468 0.209-0.468 0.468s0.209 0.468 0.468 0.468c0.258 0 0.468-0.209 0.468-0.468s-0.209-0.468-0.468-0.468zM22.758 12.806c0-0.811 0.657-1.468 1.468-1.468s1.468 0.657 1.468 1.468-0.657 1.468-1.468 1.468c-0.811 0-1.468-0.657-1.468-1.468zM7.774 11.823c0.276 0 0.5 0.224 0.5 0.5v2.887h2.887c0.276 0 0.5 0.224 0.5 0.5s-0.224 0.5-0.5 0.5h-2.887v2.887c0 0.276-0.224 0.5-0.5 0.5s-0.5-0.224-0.5-0.5v-2.887h-2.887c-0.276 0-0.5-0.224-0.5-0.5s0.224-0.5 0.5-0.5h2.887v-2.887c0-0.276 0.224-0.5 0.5-0.5zM21.323 15.242c-0.258 0-0.468 0.209-0.468 0.468s0.209 0.468 0.468 0.468c0.258 0 0.468-0.209 0.468-0.468s-0.209-0.468-0.468-0.468zM19.855 15.71c0-0.811 0.657-1.468 1.468-1.468s1.468 0.657 1.468 1.468c0 0.811-0.657 1.468-1.468 1.468s-1.468-0.657-1.468-1.468zM27.129 15.242c-0.258 0-0.468 0.209-0.468 0.468s0.209 0.468 0.468 0.468c0.258 0 0.468-0.209 0.468-0.468s-0.209-0.468-0.468-0.468zM25.661 15.71c0-0.811 0.657-1.468 1.468-1.468s1.468 0.657 1.468 1.468c0 0.811-0.657 1.468-1.468 1.468s-1.468-0.657-1.468-1.468zM24.226 18.145c-0.258 0-0.468 0.209-0.468 0.468s0.209 0.468 0.468 0.468c0.258 0 0.468-0.209 0.468-0.468s-0.209-0.468-0.468-0.468zM22.758 18.613c0-0.811 0.657-1.468 1.468-1.468s1.468 0.657 1.468 1.468c0 0.811-0.657 1.468-1.468 1.468s-1.468-0.657-1.468-1.468z"></path>
    </symbol>
    <symbol id="dishes" viewBox="0 0 32 32">
      <path
        d="M14.578 7.001c-0.354-0.947 0.442-2.058 1.458-1.999 0.99-0.013 1.728 1.078 1.395 2.001 2.183-0.003 4.366-0.001 6.55-0.001 0.896-0.002 1.801 0.336 2.438 0.975 0.695 0.648 1.099 1.601 1.078 2.552-0.003 0.657-0.001 1.315-0.002 1.971 1.146 0.002 2.293-0.001 3.439 0.001 0.514-0.024 1.010 0.382 1.057 0.899 0.083 0.809-0.387 1.624-1.096 2.010-1.131 0.634-2.269 1.258-3.4 1.891 0.001 2.073-0.001 4.145 0.001 6.217 0.012 1.127-0.579 2.239-1.515 2.866-0.582 0.409-1.296 0.615-2.005 0.616-5.334-0.001-10.67 0.001-16.005-0.001-1.326 0.002-2.608-0.831-3.148-2.040-0.23-0.481-0.328-1.016-0.324-1.547 0.003-2.042 0.001-4.083 0.001-6.124-1.031-0.56-2.051-1.141-3.080-1.704-0.815-0.353-1.464-1.157-1.416-2.075 0.001-0.53 0.479-1.003 1.008-1.005 1.162-0.008 2.326-0.001 3.488-0.002 0.051-1.042-0.141-2.122 0.189-3.133 0.45-1.371 1.828-2.37 3.274-2.366 2.206-0.001 4.411 0 6.617-0.001zM15.817 6.043c-0.294 0.092-0.409 0.494-0.232 0.739 0.205 0.33 0.768 0.268 0.886-0.108 0.179-0.382-0.277-0.823-0.654-0.631zM5.918 9.123c-0.389 0.543-0.451 1.229-0.411 1.877 6.998 0 13.996-0.002 20.995 0 0.024-0.582-0.009-1.195-0.314-1.709-0.414-0.763-1.253-1.274-2.122-1.282-5.364-0.001-10.73 0.001-16.094-0.001-0.815-0.008-1.616 0.43-2.054 1.116zM5.505 12.005c0.001 3.88-0.003 7.761 0.003 11.641 0.035 1.232 1.128 2.316 2.36 2.346 5.402 0.005 10.804 0.002 16.206 0.002 1.263 0 2.399-1.114 2.424-2.377 0.009-3.871 0.001-7.743 0.003-11.614-6.998 0.005-13.997 0.001-20.996 0.002zM0.984 13.513c0.025 0.393 0.201 0.795 0.558 0.991 0.983 0.555 1.98 1.089 2.959 1.652-0.004-0.884-0.001-1.768-0.002-2.652-1.172 0.009-2.344-0.008-3.515 0.009zM27.497 13.508c-0.004 0.882 0 1.764-0.002 2.646 0.98-0.541 1.958-1.086 2.936-1.629 0.371-0.195 0.569-0.608 0.581-1.016-1.171-0.004-2.342-0.002-3.514-0.001z"></path>
    </symbol>
    <symbol id="oven" viewBox="0 0 32 32">
      <path
        d="M0 2.581c0-1.425 1.155-2.581 2.581-2.581h26.839c1.425 0 2.581 1.155 2.581 2.581v26.839c0 1.425-1.155 2.581-2.581 2.581h-26.839c-1.425 0-2.581-1.155-2.581-2.581v-26.839zM2.581 1.032c-0.855 0-1.548 0.693-1.548 1.548v26.839c0 0.855 0.693 1.548 1.548 1.548h26.839c0.855 0 1.548-0.693 1.548-1.548v-26.839c0-0.855-0.693-1.548-1.548-1.548h-26.839zM5.677 4.129c-0.855 0-1.548 0.693-1.548 1.548s0.693 1.548 1.548 1.548c0.855 0 1.548-0.693 1.548-1.548s-0.693-1.548-1.548-1.548zM3.097 5.677c0-1.425 1.155-2.581 2.581-2.581s2.581 1.155 2.581 2.581c0 1.425-1.155 2.581-2.581 2.581s-2.581-1.155-2.581-2.581zM26.323 4.129c-0.855 0-1.548 0.693-1.548 1.548s0.693 1.548 1.548 1.548c0.855 0 1.548-0.693 1.548-1.548s-0.693-1.548-1.548-1.548zM23.742 5.677c0-1.425 1.155-2.581 2.581-2.581s2.581 1.155 2.581 2.581c0 1.425-1.155 2.581-2.581 2.581s-2.581-1.155-2.581-2.581zM9.806 7.226c0-0.285 0.231-0.516 0.516-0.516h11.355c0.285 0 0.516 0.231 0.516 0.516s-0.231 0.516-0.516 0.516h-11.355c-0.285 0-0.516-0.231-0.516-0.516zM4.129 13.935c0-1.425 1.155-2.581 2.581-2.581h18.581c1.425 0 2.581 1.155 2.581 2.581v11.355c0 1.425-1.156 2.581-2.581 2.581h-18.581c-1.425 0-2.581-1.156-2.581-2.581v-11.355zM6.71 12.387c-0.855 0-1.548 0.693-1.548 1.548v11.355c0 0.855 0.693 1.548 1.548 1.548h18.581c0.855 0 1.548-0.693 1.548-1.548v-11.355c0-0.855-0.693-1.548-1.548-1.548h-18.581zM14.881 15.714c0.158 0.237 0.094 0.558-0.143 0.716l-0.643 0.428c-0.861 0.574-0.861 1.839 0 2.413 1.381 0.92 1.487 2.91 0.212 3.973l-1.074 0.895c-0.219 0.183-0.544 0.153-0.727-0.066s-0.153-0.544 0.066-0.727l1.074-0.895c0.745-0.62 0.683-1.783-0.124-2.32-1.474-0.983-1.474-3.148 0-4.131l0.643-0.428c0.237-0.158 0.558-0.094 0.716 0.143zM19.526 15.714c0.158 0.237 0.094 0.558-0.143 0.716l-0.643 0.428c-0.861 0.574-0.861 1.839 0 2.413 1.381 0.92 1.487 2.91 0.212 3.973l-1.074 0.895c-0.219 0.183-0.544 0.153-0.727-0.066s-0.153-0.544 0.066-0.727l1.074-0.895c0.745-0.62 0.683-1.783-0.124-2.32-1.474-0.983-1.474-3.148 0-4.131l0.643-0.428c0.237-0.158 0.558-0.094 0.716 0.143z"></path>
    </symbol>
    <symbol id="audio" viewBox="0 0 32 32">
      <path stroke-linejoin="miter" stroke-linecap="butt" stroke-miterlimit="4" stroke-width="1"
        d="M3.613 16.5v-1c0-0.552 0.448-1 1-1h1.581M3.613 16.5v11M3.613 16.5h-1.548M3.613 27.5v1c0 0.552 0.448 1 1 1h2.129c0.552 0 1-0.448 1-1v-13c0-0.552-0.448-1-1-1h-0.548M3.613 27.5h-2.097c-0.552 0-1-0.448-1-1v-9c0-0.552 0.448-1 1-1h0.548M6.194 14.5c0-2.5 2.065-9 9.806-9s9.806 6.5 9.806 9M28.387 16.5v-1c0-0.552-0.448-1-1-1h-1.581M28.387 16.5v11M28.387 16.5h1.548M28.387 27.5v1c0 0.552-0.448 1-1 1h-2.129c-0.552 0-1-0.448-1-1v-13c0-0.552 0.448-1 1-1h0.548M28.387 27.5h2.097c0.552 0 1-0.448 1-1v-9c0-0.552-0.448-1-1-1h-0.548M29.936 16.5c0-3.5-1.548-14.5-13.936-14.5s-13.935 12-13.935 14.5"></path>
    </symbol>
    <symbol id="hair" viewBox="0 0 32 32">
      <path
        d="M0 10.586c0-4.277 3.761-7.579 8.002-7.026l14.692 1.916c0.747 0.097 1.306 0.734 1.306 1.487v7.244c0 0.753-0.559 1.39-1.306 1.487l-11.577 1.51 1.9 7.833c0.324 1.335-0.49 2.682-1.823 3.015l-2.126 0.532c-1.343 0.336-2.703-0.484-3.034-1.827l-2.468-10.020c-2.114-1.213-3.567-3.493-3.567-6.151zM4.728 17.271l2.278 9.247c0.199 0.806 1.015 1.298 1.82 1.096l2.126-0.532c0.8-0.2 1.288-1.008 1.094-1.809l-1.926-7.938-2.118 0.276c-1.147 0.15-2.261 0.017-3.274-0.341zM7.872 4.552c-3.642-0.475-6.872 2.361-6.872 6.034 0 2.352 1.323 4.361 3.235 5.378 1.072 0.57 2.327 0.827 3.638 0.656l14.692-1.916c0.249-0.032 0.435-0.245 0.435-0.496v-7.244c0-0.251-0.186-0.463-0.435-0.496l-14.692-1.916zM7.5 7.586c-1.657 0-3 1.343-3 3s1.343 3 3 3c1.657 0 3-1.343 3-3s-1.343-3-3-3zM3.5 10.586c0-2.209 1.791-4 4-4s4 1.791 4 4c0 2.209-1.791 4-4 4s-4-1.791-4-4zM25 8.086c0-0.276 0.224-0.5 0.5-0.5 1.002 0 1.515 0.686 1.87 1.16 0.010 0.013 0.020 0.027 0.030 0.040 0.394 0.525 0.63 0.8 1.1 0.8s0.706-0.274 1.1-0.8c0.010-0.013 0.020-0.026 0.030-0.040 0.355-0.474 0.868-1.16 1.87-1.16 0.276 0 0.5 0.224 0.5 0.5s-0.224 0.5-0.5 0.5c-0.47 0-0.706 0.274-1.1 0.8-0.010 0.013-0.020 0.026-0.030 0.040-0.355 0.474-0.868 1.16-1.87 1.16s-1.515-0.686-1.87-1.16c-0.010-0.013-0.020-0.027-0.030-0.040-0.394-0.525-0.63-0.8-1.1-0.8-0.276 0-0.5-0.224-0.5-0.5zM25 12.086c0-0.276 0.224-0.5 0.5-0.5 1.002 0 1.515 0.686 1.87 1.16 0.010 0.013 0.020 0.027 0.030 0.040 0.394 0.525 0.63 0.8 1.1 0.8s0.706-0.274 1.1-0.8c0.010-0.013 0.020-0.026 0.030-0.040 0.355-0.474 0.868-1.16 1.87-1.16 0.276 0 0.5 0.224 0.5 0.5s-0.224 0.5-0.5 0.5c-0.47 0-0.706 0.274-1.1 0.8-0.010 0.013-0.020 0.026-0.030 0.040-0.355 0.474-0.868 1.16-1.87 1.16s-1.515-0.686-1.87-1.16c-0.010-0.013-0.020-0.027-0.030-0.040-0.394-0.525-0.63-0.8-1.1-0.8-0.276 0-0.5-0.224-0.5-0.5z"></path>
    </symbol>
    <symbol id="smartphone" viewBox="0 0 32 32">
      <path
        d="M6.5 3.5c0-1.933 1.567-3.5 3.5-3.5h12c1.933 0 3.5 1.567 3.5 3.5v25c0 1.933-1.567 3.5-3.5 3.5h-12c-1.933 0-3.5-1.567-3.5-3.5v-25zM10 1c-1.381 0-2.5 1.119-2.5 2.5v1h17v-1c0-1.381-1.119-2.5-2.5-2.5h-12zM24.5 5.5h-17v21h17v-21zM24.5 27.5h-17v1c0 1.381 1.119 2.5 2.5 2.5h12c1.381 0 2.5-1.119 2.5-2.5v-1zM14 3c0-0.276 0.224-0.5 0.5-0.5h3c0.276 0 0.5 0.224 0.5 0.5s-0.224 0.5-0.5 0.5h-3c-0.276 0-0.5-0.224-0.5-0.5zM15 29c0-0.276 0.224-0.5 0.5-0.5h1c0.276 0 0.5 0.224 0.5 0.5s-0.224 0.5-0.5 0.5h-1c-0.276 0-0.5-0.224-0.5-0.5z"></path>
    </symbol>
    <symbol id="watch" viewBox="0 0 32 32">
      <path
        d="M12.876 1h6.249c0.251 0 0.463 0.185 0.496 0.434l0.809 6.066h-8.858l0.809-6.066c0.033-0.248 0.245-0.434 0.496-0.434zM21.438 7.5h0.562c1.228 0 2.25 0.886 2.46 2.053 0.883 0.208 1.54 1.001 1.54 1.947 0 0.932-0.637 1.715-1.5 1.937v2.063c0.828 0 1.5 0.672 1.5 1.5v3c0 0.828-0.672 1.5-1.5 1.5v0.5c0 1.381-1.119 2.5-2.5 2.5h-0.562l-0.826 6.198c-0.099 0.745-0.735 1.302-1.487 1.302h-6.249c-0.752 0-1.387-0.556-1.487-1.302l-0.826-6.198h-0.562c-1.381 0-2.5-1.119-2.5-2.5v-12c0-1.381 1.119-2.5 2.5-2.5h0.562l0.826-6.198c0.099-0.745 0.735-1.302 1.487-1.302h6.249c0.752 0 1.388 0.557 1.487 1.302l0.826 6.198zM24.5 10.634c0.299 0.173 0.5 0.496 0.5 0.866s-0.201 0.693-0.5 0.866v-1.732zM24.5 16.5c0.276 0 0.5 0.224 0.5 0.5v3c0 0.276-0.224 0.5-0.5 0.5v-4zM20.429 24.5h-8.858l0.809 6.066c0.033 0.248 0.245 0.434 0.496 0.434h6.249c0.251 0 0.463-0.185 0.496-0.434l0.809-6.066zM10 8.5c-0.828 0-1.5 0.672-1.5 1.5v12c0 0.828 0.672 1.5 1.5 1.5h12c0.828 0 1.5-0.672 1.5-1.5v-12c0-0.828-0.672-1.5-1.5-1.5h-12z"></path>
    </symbol>
    <symbol id="tv" viewBox="0 0 32 32">
      <path
        d="M0 5c0-1.381 1.119-2.5 2.5-2.5h27c1.381 0 2.5 1.119 2.5 2.5v18c0 1.381-1.119 2.5-2.5 2.5h-11.25v1.583l7.84 1.425c0.272 0.049 0.452 0.31 0.403 0.581s-0.31 0.452-0.581 0.403l-8.206-1.492h-3.41l-8.206 1.492c-0.272 0.049-0.532-0.131-0.581-0.403s0.131-0.532 0.402-0.581l7.839-1.425v-1.583h-11.25c-1.381 0-2.5-1.119-2.5-2.5v-18zM14.75 25.5v1.5h2.5v-1.5h-2.5zM2.5 3.5c-0.828 0-1.5 0.672-1.5 1.5v18c0 0.828 0.672 1.5 1.5 1.5h27c0.828 0 1.5-0.672 1.5-1.5v-18c0-0.828-0.672-1.5-1.5-1.5h-27z"></path>
    </symbol>
    <symbol id="washing-machine" viewBox="0 0 32 32">
      <path
        d="M4 2.5c0-1.381 1.119-2.5 2.5-2.5h19c1.381 0 2.5 1.119 2.5 2.5v27c0 1.381-1.119 2.5-2.5 2.5h-19c-1.381 0-2.5-1.119-2.5-2.5v-27zM6.5 1c-0.828 0-1.5 0.672-1.5 1.5v4h14.5c0.276 0 0.5 0.224 0.5 0.5s-0.224 0.5-0.5 0.5h-14.5v22c0 0.828 0.672 1.5 1.5 1.5h19c0.828 0 1.5-0.672 1.5-1.5v-22h-4.5c-0.276 0-0.5-0.224-0.5-0.5s0.224-0.5 0.5-0.5h4.5v-4c0-0.828-0.672-1.5-1.5-1.5h-0.5v1c0 1.381-1.119 2.5-2.5 2.5h-3.5c-1.381 0-2.5-1.119-2.5-2.5v-1h-10zM17.5 1v1c0 0.828 0.672 1.5 1.5 1.5h3.5c0.828 0 1.5-0.672 1.5-1.5v-1h-6.5zM7.5 4c0-0.276 0.224-0.5 0.5-0.5h5c0.276 0 0.5 0.224 0.5 0.5s-0.224 0.5-0.5 0.5h-5c-0.276 0-0.5-0.224-0.5-0.5zM16 13.5c-3.59 0-6.5 2.91-6.5 6.5s2.91 6.5 6.5 6.5c3.59 0 6.5-2.91 6.5-6.5s-2.91-6.5-6.5-6.5zM8.5 20c0-4.142 3.358-7.5 7.5-7.5s7.5 3.358 7.5 7.5c0 4.142-3.358 7.5-7.5 7.5s-7.5-3.358-7.5-7.5z"></path>
    </symbol>

    <symbol id="travel" viewBox="0 0 32 32">
      <path
        d="M13.458 2.84c0.605-0.354 1.381-0.15 1.735 0.456l0.807 1.384 0.807-1.384c0.353-0.606 1.13-0.81 1.735-0.456s0.809 1.131 0.455 1.737l-1.502 2.574 12.847 19.218c0.846 1.266-0.060 2.964-1.581 2.964h-25.523c-1.521 0-2.427-1.699-1.581-2.964l12.847-19.218-1.502-2.574c-0.353-0.606-0.149-1.383 0.455-1.737zM16 9.48l-11.574 17.314h5.756l3.602-6.482c0.967-1.74 3.466-1.74 4.432 0l3.602 6.482h5.756l-11.574-17.314zM18.916 26.793l-2.916-5.247-2.916 5.247h5.831z"></path>
    </symbol>
    <symbol id="home-tools" viewBox="0 0 32 32">
      <path
        d="M24 13.333c1.473 0 2.667-1.194 2.667-2.667h2.667c0.736 0 1.333-0.597 1.333-1.333s-0.597-1.333-1.333-1.333h-2.667c0-1.473-1.194-2.667-2.667-2.667h-4.114c-0.275-0.777-1.015-1.333-1.886-1.333h-11.333c-2.946 0-5.333 2.388-5.333 5.333 0 2.937 2.374 5.319 5.307 5.333l-1.067 5.333h-0.907c-1.105 0-2 0.895-2 2v4.267c0 0.957 0.776 1.733 1.733 1.733h11.2c0.957 0 1.733-0.776 1.733-1.733v-4.267c0-1.105-0.895-2-2-2h-1.707l1.014-5.072c0.018-0.088 0.026-0.175 0.026-0.261h3.333c0.871 0 1.612-0.557 1.886-1.333h4.114zM20 8h4v2.667h-4v-2.667zM11.974 14.667l-1.067 5.333h-2.614l1.014-5.072c0.018-0.088 0.026-0.175 0.026-0.261h2.64zM12.027 22.667c-0.017 0-0.034 0-0.051 0h-5.282c-0.017 0-0.034 0-0.051 0h-1.309v2.667h9.333v-2.667h-2.64zM17.333 12h-10.667c-1.473 0-2.667-1.194-2.667-2.667s1.194-2.667 2.667-2.667h10.667v5.333z"></path>
    </symbol>
    <symbol id="home-living" viewBox="0 0 32 32">
      <path
        d="M15.057 3.057c0.521-0.521 1.365-0.521 1.886 0l12 12c0.381 0.381 0.495 0.955 0.289 1.453s-0.693 0.823-1.232 0.823h-1.333v8c0 1.061-0.421 2.078-1.172 2.828s-1.767 1.172-2.828 1.172h-13.333c-1.061 0-2.078-0.421-2.828-1.172s-1.172-1.767-1.172-2.828v-8h-1.333c-0.539 0-1.025-0.325-1.232-0.823s-0.092-1.072 0.289-1.453l12-12zM7.135 14.751c0.506 0.189 0.865 0.677 0.865 1.249v9.333c0 0.354 0.14 0.693 0.391 0.943s0.589 0.391 0.943 0.391h1.333v-6.667c0-1.061 0.421-2.078 1.172-2.828s1.768-1.172 2.828-1.172h2.667c1.061 0 2.078 0.421 2.828 1.172s1.172 1.767 1.172 2.828v6.667h1.333c0.354 0 0.693-0.141 0.943-0.391s0.391-0.589 0.391-0.943v-9.333c0-0.572 0.36-1.059 0.865-1.249l-8.865-8.865-8.865 8.865zM18.667 26.667v-6.667c0-0.354-0.141-0.693-0.391-0.943s-0.589-0.391-0.943-0.391h-2.667c-0.354 0-0.693 0.141-0.943 0.391s-0.391 0.589-0.391 0.943v6.667h5.333z"></path>
    </symbol>
    <symbol id="children" viewBox="0 0 32 32">
      <path
        d="M24.724 2.668c0.492-0.022 0.954 0.243 1.193 0.685l3.252 6c0.282 0.52 0.193 1.169-0.217 1.59l-1.951 2c-0.396 0.406-1.001 0.506-1.502 0.25l-1.438-0.737-0.508 1.042 2.075 9.037c0.092-0.076 0.185-0.153 0.277-0.231 0.555-0.468 1.374-0.387 1.831 0.182s0.377 1.409-0.177 1.877c-3.849 3.249-7.817 4.971-11.884 4.971s-8.035-1.722-11.884-4.971c-0.555-0.468-0.634-1.308-0.177-1.877s1.276-0.65 1.831-0.182c0.080 0.067 0.16 0.134 0.239 0.2l1.88-9.152c-0.577 0.070-1.118 0.337-1.533 0.763-0.488 0.5-0.762 1.178-0.762 1.886 0 0.736-0.582 1.333-1.301 1.333s-1.301-0.597-1.301-1.333c0-1.415 0.548-2.771 1.524-3.771s2.299-1.562 3.679-1.562h1.273c0.017-0 0.035-0 0.052 0h5.559c0.569-1.632 1.27-3.427 2.53-4.878 1.571-1.808 3.879-2.963 7.44-3.121zM10.226 13.333l-2.231 10.863c0.559 0.357 1.115 0.674 1.668 0.952l2.202-5.643c0.198-0.506 0.676-0.838 1.208-0.838h5.203c0.532 0 1.010 0.332 1.208 0.838l2.202 5.643c0.548-0.275 1.098-0.589 1.652-0.942l-2.426-10.568c-0.070-0.304-0.033-0.623 0.103-0.902l1.301-2.667c0.321-0.659 1.103-0.926 1.745-0.596l1.763 0.904 0.594-0.609-2.374-4.38c-2.505 0.25-3.899 1.117-4.817 2.174-1.073 1.235-1.631 2.859-2.299 4.804l-0.026 0.077c-0.183 0.533-0.675 0.89-1.227 0.89h-5.449zM19.265 26.123l-1.869-4.79h-3.442l-1.869 4.79c1.21 0.365 2.406 0.544 3.59 0.544s2.38-0.178 3.59-0.544z"></path>
    </symbol>
    <symbol id="perfumes" viewBox="0 0 32 32">
      <path
        d="M10.667 4c0-0.736 0.597-1.333 1.333-1.333h8c0.736 0 1.333 0.597 1.333 1.333v4c0 0.736-0.597 1.333-1.333 1.333v1.333h2.667c1.061 0 2.078 0.421 2.828 1.172s1.172 1.768 1.172 2.828v10.667c0 1.061-0.421 2.078-1.172 2.828s-1.767 1.172-2.828 1.172h-13.333c-1.061 0-2.078-0.421-2.828-1.172s-1.172-1.767-1.172-2.828v-10.667c0-1.061 0.421-2.078 1.172-2.828s1.768-1.172 2.828-1.172h2.667v-1.333c-0.736 0-1.333-0.597-1.333-1.333v-4zM14.667 9.333v1.333h2.667v-1.333h-2.667zM18.667 6.667h-5.333v-1.333h5.333v1.333zM9.333 13.333c-0.354 0-0.693 0.141-0.943 0.391s-0.391 0.589-0.391 0.943v10.667c0 0.354 0.14 0.693 0.391 0.943s0.589 0.391 0.943 0.391h13.333c0.354 0 0.693-0.141 0.943-0.391s0.391-0.589 0.391-0.943v-10.667c0-0.354-0.141-0.693-0.391-0.943s-0.589-0.391-0.943-0.391h-13.333zM13.172 17.172c0.75-0.75 1.768-1.172 2.828-1.172s2.078 0.421 2.828 1.172c0.75 0.75 1.172 1.767 1.172 2.828s-0.421 2.078-1.172 2.828c-0.75 0.75-1.767 1.172-2.828 1.172s-2.078-0.421-2.828-1.172c-0.75-0.75-1.172-1.767-1.172-2.828s0.421-2.078 1.172-2.828zM16 18.667c-0.354 0-0.693 0.141-0.943 0.391s-0.391 0.589-0.391 0.943c0 0.354 0.141 0.693 0.391 0.943s0.589 0.391 0.943 0.391c0.354 0 0.693-0.141 0.943-0.391s0.391-0.589 0.391-0.943c0-0.354-0.141-0.693-0.391-0.943s-0.589-0.391-0.943-0.391z"></path>
    </symbol>
    <symbol id="sale" viewBox="0 0 32 32">
      <path
        d="M20.512 12.192l-9.664 7.68c-0.192 0.16-0.256 0.48-0.064 0.672 0.096 0.128 0.224 0.192 0.384 0.192 0.096 0 0.224-0.032 0.288-0.096l9.664-7.68c0.192-0.16 0.256-0.48 0.064-0.672-0.16-0.224-0.448-0.256-0.672-0.096z"></path>
      <path
        d="M13.44 15.616c0.128 0 0.256 0 0.384-0.032 1.312-0.192 2.24-1.44 2.016-2.784-0.096-0.64-0.448-1.216-0.96-1.6s-1.152-0.544-1.792-0.448c-0.64 0.096-1.216 0.448-1.6 0.96s-0.544 1.152-0.448 1.792c0.192 1.248 1.248 2.112 2.4 2.112zM13.216 11.744c0.064 0 0.16-0.032 0.224-0.032 0.704 0 1.344 0.512 1.44 1.248 0.128 0.8-0.416 1.536-1.216 1.664s-1.536-0.416-1.664-1.216c-0.128-0.8 0.448-1.536 1.216-1.664z"></path>
      <path
        d="M18.56 17.216c-1.344 0-2.432 1.088-2.432 2.432s1.088 2.432 2.432 2.432 2.432-1.088 2.432-2.432c-0.032-1.344-1.12-2.432-2.432-2.432zM18.56 21.088c-0.8 0-1.472-0.672-1.472-1.472s0.672-1.472 1.472-1.472 1.472 0.672 1.472 1.472c-0.032 0.832-0.672 1.472-1.472 1.472z"></path>
      <path
        d="M30.528 16.096c0-0.032 0.032-0.096 0.032-0.128 0-1.376-1.44-2.080-2.688-2.688-0.896-0.448-1.856-0.928-2.112-1.504-0.256-0.608 0.096-1.6 0.448-2.528 0.48-1.312 0.96-2.656 0.064-3.552s-2.176-0.576-3.456-0.288c-0.896 0.192-1.824 0.416-2.432 0.16s-1.12-1.056-1.6-1.824c-0.704-1.088-1.472-2.336-2.816-2.336s-2.112 1.248-2.784 2.368c-0.48 0.8-0.96 1.6-1.568 1.856s-1.568 0.032-2.464-0.192c-1.28-0.32-2.592-0.64-3.456 0.224-0.896 0.896-0.448 2.24-0.032 3.552 0.32 0.96 0.608 1.92 0.352 2.56-0.256 0.608-1.152 1.056-2.016 1.504-1.216 0.64-2.592 1.344-2.592 2.688 0 0.032 0 0.096 0.032 0.128 0 0.032-0.032 0.096-0.032 0.128 0 1.344 1.376 2.080 2.592 2.688 0.864 0.448 1.76 0.896 2.016 1.504s-0.064 1.6-0.352 2.56c-0.416 1.312-0.864 2.656 0.032 3.552s2.208 0.544 3.456 0.224c0.896-0.224 1.856-0.448 2.464-0.192s1.088 1.056 1.568 1.856c0.672 1.12 1.44 2.368 2.784 2.368s2.144-1.248 2.816-2.336c0.48-0.768 0.992-1.568 1.6-1.824 0.64-0.256 1.536-0.064 2.432 0.16 1.248 0.288 2.56 0.608 3.456-0.288s0.416-2.24-0.064-3.552c-0.352-0.96-0.704-1.92-0.448-2.528s1.184-1.056 2.112-1.504c1.248-0.64 2.688-1.344 2.688-2.688 0-0.064-0.032-0.096-0.032-0.128zM27.424 18.048c-1.056 0.544-2.176 1.088-2.56 2.016-0.416 0.96 0.032 2.112 0.416 3.232 0.384 1.056 0.768 2.080 0.288 2.528-0.512 0.512-1.504 0.288-2.56 0.032s-2.112-0.48-3.040-0.096c-0.896 0.384-1.472 1.28-2.016 2.176-0.608 0.96-1.184 1.888-2.016 1.888-0.8 0-1.376-0.928-1.984-1.92-0.544-0.928-1.12-1.856-2.016-2.24-0.928-0.384-2.016-0.128-3.072 0.16-1.056 0.256-2.048 0.512-2.56 0.032-0.48-0.48-0.16-1.504 0.192-2.56 0.352-1.12 0.736-2.272 0.32-3.2-0.384-0.928-1.44-1.472-2.464-1.984-1.056-0.544-2.048-1.056-2.048-1.856 0-0.032 0-0.096-0.032-0.128 0-0.032 0.032-0.096 0.032-0.128 0-0.768 0.992-1.28 2.048-1.856 1.024-0.512 2.080-1.056 2.464-1.984 0.384-0.96 0.032-2.112-0.32-3.2s-0.672-2.112-0.192-2.56c0.512-0.512 1.504-0.256 2.56 0.032 1.056 0.256 2.144 0.544 3.072 0.16 0.896-0.384 1.472-1.312 2.016-2.24 0.608-0.992 1.152-1.92 1.984-1.92s1.408 0.928 2.016 1.888c0.576 0.896 1.152 1.792 2.016 2.176 0.928 0.384 1.984 0.128 3.040-0.096 1.056-0.256 2.048-0.48 2.56 0.032 0.48 0.448 0.096 1.472-0.288 2.528-0.416 1.12-0.832 2.272-0.416 3.232 0.384 0.928 1.504 1.472 2.56 2.016 1.12 0.544 2.144 1.088 2.144 1.856 0 0.032 0 0.096 0.032 0.128 0 0.032-0.032 0.096-0.032 0.128 0.032 0.64-1.024 1.184-2.144 1.728z"></path>
    </symbol>
    <symbol id="icon-phone" viewBox="0 0 32 32">
      <path
        d="M22 20c-2 2-2 4-4 4s-4-2-6-4-4-4-4-6 2-2 4-4-4-8-6-8-6 6-6 6c0 4 4.109 12.109 8 16s12 8 16 8c0 0 6-4 6-6s-6-8-8-6z"></path>
    </symbol>
    <symbol id="down_arrow" viewBox="0 0 32 32">
      <path d="M24.788 10l1.212 1.294-10 10.706-10-10.706 1.206-1.294 8.794 9.406z"></path>
    </symbol>
    <symbol id="balance" viewBox="0 0 32 32">
      <path
        d="M30.575 18.182h-0.441l-3.278-7.118c0.48-0.359 0.8-0.926 0.8-1.571 0-1.081-0.882-1.964-1.964-1.964-0.693 0-1.299 0.364-1.648 0.902h-3.418c-0.538-1.445-1.726-2.575-3.21-3.021v-1.052h0.558c0.271 0 0.519-0.155 0.635-0.402s0.082-0.533-0.092-0.742l-1.973-2.385c-0.136-0.16-0.335-0.252-0.543-0.252 0 0 0 0 0 0-0.209 0-0.407 0.092-0.538 0.252l-1.973 2.385c-0.175 0.208-0.209 0.495-0.092 0.742s0.359 0.402 0.635 0.402h0.558v1.057c-1.489 0.446-2.676 1.576-3.215 3.021h-3.423c-0.349-0.543-0.955-0.902-1.649-0.902-1.081 0-1.964 0.882-1.964 1.964 0 0.645 0.32 1.217 0.805 1.576l-3.278 7.108h-0.441c-0.465 0-0.849 0.378-0.849 0.849 0 0.465 0.378 0.849 0.849 0.849h0.087c0.238 2.381 2.23 4.218 4.65 4.218s4.412-1.838 4.65-4.218h0.378c0.465 0 0.848-0.378 0.848-0.849 0-0.465-0.378-0.849-0.848-0.849h-0.441l-3.278-7.118c0.189-0.141 0.354-0.315 0.485-0.514h3.122c0.16 1.983 1.498 3.636 3.307 4.262v11.442h-3.098c-0.824 0-1.493 0.669-1.493 1.493v0.892h-1.202c-0.766 0-1.387 0.621-1.387 1.387v0.916h-4.844c-0.131 0-0.238 0.107-0.238 0.238s0.107 0.238 0.238 0.238h27.278c0.131 0 0.238-0.107 0.238-0.238s-0.107-0.238-0.238-0.238h-4.834v-0.916c0-0.766-0.621-1.387-1.387-1.387h-1.202v-0.892c0-0.824-0.669-1.493-1.493-1.493h-3.098v-11.442c1.813-0.63 3.147-2.279 3.307-4.262h3.122c0.131 0.199 0.296 0.373 0.49 0.514l-3.287 7.118h-0.441c-0.465 0-0.849 0.378-0.849 0.849 0 0.465 0.378 0.849 0.849 0.849h0.087c0.238 2.381 2.23 4.218 4.65 4.218 2.415 0 4.412-1.838 4.65-4.218h0.378c0.465 0 0.849-0.378 0.849-0.849-0.005-0.465-0.388-0.849-0.853-0.849zM24.325 30.032v0.916h-16.655v-0.916c0-0.504 0.412-0.912 0.912-0.912h14.827c0.509 0 0.916 0.407 0.916 0.912zM21.736 27.753v0.892h-11.472v-0.892c0-0.562 0.456-1.023 1.023-1.023h9.425c0.562 0 1.023 0.461 1.023 1.023zM25.692 8.005c0.819 0 1.488 0.669 1.488 1.489 0 0.538-0.291 1.008-0.722 1.27 0 0 0 0 0 0s0 0 0 0c-0.223 0.136-0.48 0.218-0.761 0.218-0.276 0-0.533-0.082-0.756-0.213 0 0 0 0-0.005 0 0 0 0 0 0 0-0.431-0.262-0.727-0.732-0.727-1.27-0.005-0.824 0.664-1.493 1.484-1.493zM13.823 3.758c-0.015-0.029-0.053-0.136 0.029-0.238l1.973-2.385c0.058-0.073 0.136-0.082 0.175-0.082s0.116 0.010 0.175 0.082l1.973 2.385c0.082 0.102 0.044 0.208 0.029 0.238s-0.073 0.131-0.204 0.131h-3.951c-0.131 0-0.184-0.102-0.199-0.131zM15.055 4.359h1.891v0.941c-0.305-0.058-0.621-0.092-0.945-0.092s-0.635 0.034-0.941 0.092v-0.941zM4.819 9.493c0-0.819 0.669-1.489 1.489-1.489s1.489 0.669 1.489 1.489c0 0.538-0.291 1.008-0.722 1.27 0 0 0 0 0 0s0 0 0 0c-0.223 0.136-0.48 0.218-0.761 0.218-0.276 0-0.533-0.082-0.756-0.213 0 0 0 0-0.005 0 0 0 0 0 0 0-0.436-0.262-0.732-0.732-0.732-1.275zM6.162 23.622c-2.158 0-3.942-1.624-4.175-3.743h8.354c-0.238 2.119-2.027 3.743-4.179 3.743zM11.564 19.030c0 0.204-0.17 0.373-0.373 0.373h-9.765c-0.204 0-0.373-0.17-0.373-0.373s0.17-0.373 0.373-0.373h0.587c0 0 8.587 0 8.587 0h0.587c0.209 0 0.378 0.17 0.378 0.373zM10.225 18.182h-7.835l3.171-6.88c0.233 0.097 0.48 0.15 0.747 0.15s0.519-0.053 0.752-0.15l3.166 6.88zM8.17 8.912h3.050c-0.097 0.373-0.155 0.766-0.16 1.168h-2.89c0.058-0.184 0.097-0.378 0.097-0.582 0-0.209-0.039-0.402-0.097-0.587zM17.139 26.255h-2.279v-11.302c0.364 0.087 0.747 0.136 1.139 0.136s0.776-0.053 1.139-0.141v11.307zM16 14.618c-2.405 0-4.369-1.915-4.461-4.301 0 0 0 0 0 0s0 0 0 0c0-0.058-0.010-0.111-0.010-0.17 0-2.463 2.002-4.465 4.465-4.465s4.47 2.002 4.47 4.465c0.005 2.463-2.002 4.47-4.465 4.47zM20.941 10.080c-0.005-0.402-0.063-0.795-0.16-1.168h3.050c-0.058 0.184-0.097 0.378-0.097 0.582s0.039 0.398 0.097 0.582h-2.89zM24.945 11.307c0.233 0.097 0.48 0.15 0.747 0.15s0.519-0.053 0.752-0.15l3.166 6.88h-7.835l3.171-6.88zM25.547 23.622c-2.153 0-3.942-1.624-4.175-3.743h8.354c-0.233 2.119-2.022 3.743-4.179 3.743zM30.575 19.404h-9.765c-0.204 0-0.373-0.17-0.373-0.373s0.17-0.373 0.373-0.373h9.76c0.204 0 0.373 0.17 0.373 0.373 0.005 0.209-0.165 0.373-0.369 0.373z"></path>
      <path
        d="M16 6.511c-2.007 0-3.636 1.629-3.636 3.636s1.629 3.641 3.636 3.641c2.007 0 3.641-1.634 3.641-3.641-0.005-2.007-1.634-3.636-3.641-3.636zM16 13.314c-1.745 0-3.161-1.421-3.161-3.166s1.421-3.161 3.161-3.161c1.745 0 3.166 1.421 3.166 3.161-0.005 1.745-1.421 3.166-3.166 3.166z"></path>
      <path
        d="M16 8.931c0.271 0 0.49 0.218 0.49 0.49 0 0.131 0.107 0.238 0.238 0.238s0.238-0.107 0.238-0.238c0-0.451-0.31-0.824-0.727-0.931v-0.233c0-0.131-0.107-0.238-0.238-0.238s-0.238 0.107-0.238 0.238v0.233c-0.417 0.107-0.727 0.48-0.727 0.931 0 0.533 0.431 0.965 0.965 0.965 0.271 0 0.49 0.218 0.49 0.49s-0.218 0.49-0.49 0.49c-0.271 0-0.49-0.218-0.49-0.49 0-0.131-0.107-0.238-0.238-0.238s-0.238 0.107-0.238 0.238c0 0.451 0.31 0.824 0.727 0.931v0.233c0 0.131 0.107 0.238 0.238 0.238s0.238-0.107 0.238-0.238v-0.233c0.417-0.107 0.727-0.48 0.727-0.931 0-0.533-0.431-0.965-0.965-0.965-0.271 0-0.49-0.218-0.49-0.49s0.218-0.49 0.49-0.49z"></path>
    </symbol>
  </defs>
</svg>