<svg aria-hidden="true" style="position:absolute;width:0;height:0;overflow:hidden" xmlns="http://www.w3.org/2000/svg"><defs><symbol id="home" viewBox="0 0 32 32"><path d="M16.612 2.214a1.006 1.006 0 0 0-1.245.001l.002-.002L.999 13.419l1.243 1.572 1.757-1.37V26a2.003 2.003 0 0 0 2 2h20a2.003 2.003 0 0 0 2-2V13.63L29.756 15l1.243-1.572zM18 26h-4v-8h4zm2 0v-8a2.002 2.002 0 0 0-2-2h-4a2.002 2.002 0 0 0-2 2v8H6V12.062l10-7.79 10 7.801v13.928z"/></symbol><symbol id="basket" viewBox="0 0 32 32"><path d="M31.12 9.52c-.64-.72-1.52-1.2-2.48-1.2H16.32c-.4 0-.8.32-.8.8s.4.8.8.8h12.32c.48 0 .96.24 1.28.56.32.4.48.88.32 1.36l-.72 4h-8.8c-.4 0-.8.32-.8.8s.4.8.8.8h8.56l-.72 3.84c-.08.56-.64.96-1.2.96H12c-.56 0-1.04-.4-1.2-.96L7.68 3.92c-.08-.4-.4-.64-.8-.64H.72c-.4 0-.8.32-.8.8s.4.8.8.8h5.52l3.04 16.8c.16 1.12.96 1.92 2 2.24-.4.56-.72 1.28-.72 2.08 0 2 1.6 3.6 3.6 3.6s3.6-1.6 3.6-3.6a3.5 3.5 0 0 0-.64-2H22a3.5 3.5 0 0 0-.64 2c0 2 1.6 3.6 3.6 3.6s3.6-1.6 3.6-3.6c0-.8-.24-1.52-.64-2.08 1.04-.24 1.92-1.12 2.16-2.24l1.76-9.44c.16-.96-.08-1.92-.72-2.72zm-14.96 16.4c0 1.12-.88 2-2 2s-2-.88-2-2 .88-2 2-2 2 .88 2 2zm8.88 2c-1.12 0-2-.88-2-2s.88-2 2-2 2 .88 2 2-.88 2-2 2z"/></symbol><symbol id="catalog" viewBox="0 0 48 32"><path d="M2.667 0a1.778 1.778 0 1 1 0 3.556 1.778 1.778 0 0 1 0-3.556zm10.666 0h32a1.778 1.778 0 1 1 0 3.556h-32a1.778 1.778 0 1 1 0-3.556zM2.667 14.222a1.778 1.778 0 1 1 0 3.556 1.778 1.778 0 0 1 0-3.556zm10.666 0h32a1.778 1.778 0 1 1 0 3.556h-32a1.778 1.778 0 1 1 0-3.556zM2.667 28.444a1.778 1.778 0 1 1 0 3.556 1.778 1.778 0 0 1 0-3.556zm10.666 0h32a1.778 1.778 0 1 1 0 3.556h-32a1.778 1.778 0 1 1 0-3.556z"/></symbol><symbol id="profile" viewBox="0 0 32 32"><path d="M16 16a7 7 0 1 0-7-7 7 7 0 0 0 7 7zm0-12a5 5 0 1 1-5 5 5 5 0 0 1 5-5zm1 14h-2C8.925 18 4 22.925 4 29a1 1 0 0 0 1 1h22a1 1 0 0 0 1-1c0-6.075-4.925-11-11-11zM6.06 28c.52-4.52 4.324-7.998 8.94-8h2a9.001 9.001 0 0 1 8.936 7.958l.004.042z"/></symbol><symbol id="heart" viewBox="0 0 32 32"><path d="M29.415 4.545c-1.676-1.676-3.894-2.591-6.262-2.591s-4.593.923-6.268 2.598l-.875.875-.889-.889a8.828 8.828 0 0 0-6.275-2.605 8.8 8.8 0 0 0-6.255 2.591A8.77 8.77 0 0 0 0 10.792c0 2.368.929 4.586 2.605 6.262l12.74 12.74c.176.176.414.271.644.271s.468-.088.644-.265L29.4 17.08a8.805 8.805 0 0 0 2.598-6.268 8.76 8.76 0 0 0-2.585-6.268zm-1.302 11.241L15.99 27.861 3.894 15.765c-1.33-1.33-2.062-3.094-2.062-4.973s.726-3.643 2.056-4.966A6.975 6.975 0 0 1 8.847 3.77a7 7 0 0 1 4.979 2.062l1.533 1.533c.36.36.936.36 1.296 0l1.52-1.52c1.33-1.33 3.1-2.062 4.973-2.062s3.636.733 4.966 2.056a6.978 6.978 0 0 1 2.056 4.973 6.95 6.95 0 0 1-2.056 4.973z"/></symbol><symbol id="search" viewBox="0 0 32 32"><path d="M13.44 1.92C7.425 1.92 2.56 6.785 2.56 12.8s4.865 10.88 10.88 10.88c2.147 0 4.135-.63 5.82-1.7l7.86 7.86 2.72-2.72-7.76-7.74a10.805 10.805 0 0 0 2.24-6.58c0-6.015-4.865-10.88-10.88-10.88zm0 2.56c4.607 0 8.32 3.713 8.32 8.32s-3.712 8.32-8.32 8.32c-4.607 0-8.32-3.712-8.32-8.32s3.713-8.32 8.32-8.32z"/></symbol><symbol id="phone" viewBox="0 0 32 32"><path d="M23 31H9a3 3 0 0 1-3-3V4a3 3 0 0 1 3-3h14a3 3 0 0 1 3 3v24a3 3 0 0 1-3 3zM9 3a1 1 0 0 0-1 1v24a1 1 0 0 0 1 1h14a1 1 0 0 0 1-1V4a1 1 0 0 0-1-1z"/><path d="M25 7H7a1 1 0 0 1 0-2h18a1 1 0 0 1 0 2zm0 18H7a1 1 0 0 1 0-2h18a1 1 0 0 1 0 2zm-10 1h2v2h-2v-2z"/></symbol><symbol id="speaker" viewBox="0 0 32 32"><path d="M16 25.252a5.333 5.333 0 1 1 0-10.666 5.333 5.333 0 0 1 0 10.666zm0-2.667a2.667 2.667 0 1 0 0-5.334 2.667 2.667 0 0 0 0 5.334zm0-10.526a2.667 2.667 0 1 0 0-5.334 2.667 2.667 0 0 0 0 5.334z"/><path d="M9.333 1.333h13.333a4 4 0 0 1 4 4v21.333a4 4 0 0 1-4 4H9.333a4 4 0 0 1-4-4V5.333a4 4 0 0 1 4-4zM22.667 4H9.334c-.736 0-1.333.597-1.333 1.333v21.333c0 .736.597 1.333 1.333 1.333h13.333c.736 0 1.333-.597 1.333-1.333V5.333C24 4.597 23.403 4 22.667 4z"/></symbol><symbol id="computer" viewBox="0 0 32 32"><path d="M29.333 28H2.666c-1.471 0-2.667-1.249-2.667-2.785V5.451c0-1.535 1.196-2.785 2.667-2.785h26.667C30.804 2.666 32 3.915 32 5.451v19.764C32 26.75 30.804 28 29.333 28zM2.667 4c-.735 0-1.333.651-1.333 1.451v19.764c0 .8.598 1.451 1.333 1.451h26.667c.735 0 1.333-.651 1.333-1.451V5.451c0-.8-.598-1.451-1.333-1.451H2.667zm22.666 26.667H6.666a.667.667 0 0 1 0-1.334h18.667a.667.667 0 0 1 0 1.334z"/><path d="M16 30.667a.667.667 0 0 1-.667-.667v-2.667a.667.667 0 0 1 1.334 0V30a.667.667 0 0 1-.667.667zm1.333-6a1.333 1.333 0 1 1-2.667 0 1.333 1.333 0 0 1 2.667 0zM.667 21.333h30.667v1.333H.667v-1.333z"/></symbol><symbol id="favicon" viewBox="0 0 32 32"><path fill="#fff" style="fill:var(--color1, #fff)" d="M25.333 28c.736 0 1.333-.597 1.333-1.333V12.306c-.67-4.687-4.795-8.973-9.667-8.973h-2A9.667 9.667 0 0 0 5.332 13v5.333A9.667 9.667 0 0 0 14.999 28h10.333z"/><path fill="#1452cc" style="fill:var(--color2, #1452cc)" d="M15 10a3 3 0 0 0-3 3v5.333a3 3 0 0 0 3 3h5v-2.667h-4v-4h8v10.667h-9a7 7 0 0 1-7-7V13a7 7 0 0 1 7-7h2a7.001 7.001 0 0 1 6.929 6h-4.1A3.001 3.001 0 0 0 17 10h-2z"/></symbol><symbol id="back" viewBox="0 0 32 32"><path d="M22.063 28.125a.937.937 0 0 1-.663-.274L9.844 16.295a.937.937 0 0 1 0-1.326L21.4 3.413a.938.938 0 0 1 1.327 1.326L11.834 15.632l10.893 10.893a.938.938 0 0 1-.663 1.601z"/></symbol><symbol id="filter" viewBox="0 0 32 32"><path d="M18 28h-4a2 2 0 0 1-2-2v-7.59L4.59 11A1.994 1.994 0 0 1 4 9.59V6a2 2 0 0 1 2-2h20a2 2 0 0 1 2 2v3.59a1.99 1.99 0 0 1-.59 1.41L20 18.41V26a2 2 0 0 1-2 2zM6 6v3.59l8 8V26h4v-8.41l8-8V6z"/></symbol><symbol id="arrows" viewBox="0 0 32 32"><path d="M27.6 20.6 24 24.2V4h-2v20.2l-3.6-3.6L17 22l6 6 6-6zM9 4l-6 6 1.4 1.4L8 7.8V28h2V7.8l3.6 3.6L15 10z"/></symbol><symbol id="arrow" viewBox="0 0 32 32"><path fill="none" stroke-linejoin="round" stroke-linecap="round" stroke-width="2.667" stroke="#595959" style="stroke:var(--color1, #595959)" d="m12 24 8-8-8-8"/></symbol><symbol id="console" viewBox="0 0 32 32"><path d="M.5 15.71A9.21 9.21 0 0 1 9.71 6.5h12.581a9.21 9.21 0 0 1 9.21 9.21v2.453a6.757 6.757 0 0 1-6.757 6.757 4.67 4.67 0 0 1-3.606-1.702l-.916-1.113a3.565 3.565 0 0 0-2.752-1.299h-2.938a3.565 3.565 0 0 0-2.752 1.299l-.916 1.113a4.673 4.673 0 0 1-3.606 1.702 6.757 6.757 0 0 1-6.757-6.757V15.71zM9.71 7.5a8.21 8.21 0 0 0-8.21 8.21v2.453a5.757 5.757 0 0 0 5.757 5.757 3.673 3.673 0 0 0 2.834-1.337l.916-1.113a4.563 4.563 0 0 1 3.523-1.663h2.938c1.364 0 2.656.61 3.524 1.663l.916 1.113a3.67 3.67 0 0 0 2.834 1.337 5.757 5.757 0 0 0 5.757-5.757V15.71a8.21 8.21 0 0 0-8.21-8.21H9.708zm14.516 4.839a.468.468 0 1 0 0 .936.468.468 0 0 0 0-.936zm-1.468.467a1.468 1.468 0 1 1 2.935 0 1.468 1.468 0 0 1-2.935 0zm-14.984-.983a.5.5 0 0 1 .5.5v2.887h2.887a.5.5 0 0 1 0 1H8.274v2.887a.5.5 0 0 1-1 0V16.21H4.387a.5.5 0 0 1 0-1h2.887v-2.887a.5.5 0 0 1 .5-.5zm13.549 3.419a.468.468 0 1 0 0 .936.468.468 0 0 0 0-.936zm-1.468.468a1.468 1.468 0 1 1 2.935 0 1.468 1.468 0 0 1-2.935 0zm7.274-.468a.468.468 0 1 0 0 .936.468.468 0 0 0 0-.936zm-1.468.468a1.468 1.468 0 1 1 2.935 0 1.468 1.468 0 0 1-2.935 0zm-1.435 2.435a.468.468 0 1 0 0 .936.468.468 0 0 0 0-.936zm-1.468.468a1.468 1.468 0 1 1 2.935 0 1.468 1.468 0 0 1-2.935 0z"/></symbol><symbol id="dishes" viewBox="0 0 32 32"><path d="M14.578 7.001c-.354-.947.442-2.058 1.458-1.999.99-.013 1.728 1.078 1.395 2.001 2.183-.003 4.366-.001 6.55-.001.896-.002 1.801.336 2.438.975a3.436 3.436 0 0 1 1.078 2.552c-.003.657-.001 1.315-.002 1.971 1.146.002 2.293-.001 3.439.001.514-.024 1.01.382 1.057.899.083.809-.387 1.624-1.096 2.01-1.131.634-2.269 1.258-3.4 1.891.001 2.073-.001 4.145.001 6.217a3.47 3.47 0 0 1-1.515 2.866 3.512 3.512 0 0 1-2.005.616c-5.334-.001-10.67.001-16.005-.001-1.326.002-2.608-.831-3.148-2.04a3.525 3.525 0 0 1-.324-1.547c.003-2.042.001-4.083.001-6.124-1.031-.56-2.051-1.141-3.08-1.704-.815-.353-1.464-1.157-1.416-2.075.001-.53.479-1.003 1.008-1.005 1.162-.008 2.326-.001 3.488-.002.051-1.042-.141-2.122.189-3.133.45-1.371 1.828-2.37 3.274-2.366l6.617-.001zm1.239-.958c-.294.092-.409.494-.232.739.205.33.768.268.886-.108.179-.382-.277-.823-.654-.631zm-9.899 3.08c-.389.543-.451 1.229-.411 1.877 6.998 0 13.996-.002 20.995 0 .024-.582-.009-1.195-.314-1.709a2.49 2.49 0 0 0-2.122-1.282c-5.364-.001-10.73.001-16.094-.001a2.454 2.454 0 0 0-2.054 1.116zm-.413 2.882c.001 3.88-.003 7.761.003 11.641.035 1.232 1.128 2.316 2.36 2.346 5.402.005 10.804.002 16.206.002 1.263 0 2.399-1.114 2.424-2.377.009-3.871.001-7.743.003-11.614-6.998.005-13.997.001-20.996.002zM.984 13.513c.025.393.201.795.558.991.983.555 1.98 1.089 2.959 1.652-.004-.884-.001-1.768-.002-2.652-1.172.009-2.344-.008-3.515.009zm26.513-.005c-.004.882 0 1.764-.002 2.646.98-.541 1.958-1.086 2.936-1.629.371-.195.569-.608.581-1.016-1.171-.004-2.342-.002-3.514-.001z"/></symbol><symbol id="oven" viewBox="0 0 32 32"><path d="M0 2.581A2.58 2.58 0 0 1 2.581 0H29.42a2.58 2.58 0 0 1 2.581 2.581V29.42a2.58 2.58 0 0 1-2.581 2.581H2.581A2.58 2.58 0 0 1 0 29.42V2.581zm2.581-1.549c-.855 0-1.548.693-1.548 1.548v26.839c0 .855.693 1.548 1.548 1.548H29.42c.855 0 1.548-.693 1.548-1.548V2.58c0-.855-.693-1.548-1.548-1.548H2.581zm3.096 3.097a1.548 1.548 0 1 0 0 3.096 1.548 1.548 0 0 0 0-3.096zm-2.58 1.548a2.58 2.58 0 1 1 5.162 0 2.58 2.58 0 0 1-5.162 0zm23.226-1.548a1.548 1.548 0 1 0 0 3.096 1.548 1.548 0 0 0 0-3.096zm-2.581 1.548a2.58 2.58 0 1 1 5.162 0 2.58 2.58 0 0 1-5.162 0zM9.806 7.226c0-.285.231-.516.516-.516h11.355a.516.516 0 1 1 0 1.032H10.322a.516.516 0 0 1-.516-.516zm-5.677 6.709a2.58 2.58 0 0 1 2.581-2.581h18.581a2.58 2.58 0 0 1 2.581 2.581V25.29a2.582 2.582 0 0 1-2.581 2.581H6.71a2.582 2.582 0 0 1-2.581-2.581V13.935zm2.581-1.548c-.855 0-1.548.693-1.548 1.548V25.29c0 .855.693 1.548 1.548 1.548h18.581c.855 0 1.548-.693 1.548-1.548V13.935c0-.855-.693-1.548-1.548-1.548H6.71zm8.171 3.327a.517.517 0 0 1-.143.716l-.643.428a1.45 1.45 0 0 0 0 2.413 2.483 2.483 0 0 1 .212 3.973l-1.074.895a.516.516 0 1 1-.661-.793l1.074-.895a1.45 1.45 0 0 0-.124-2.32 2.482 2.482 0 0 1 0-4.131l.643-.428a.517.517 0 0 1 .716.143zm4.645 0a.517.517 0 0 1-.143.716l-.643.428a1.45 1.45 0 0 0 0 2.413 2.483 2.483 0 0 1 .212 3.973l-1.074.895a.516.516 0 1 1-.661-.793l1.074-.895a1.45 1.45 0 0 0-.124-2.32 2.482 2.482 0 0 1 0-4.131l.643-.428a.517.517 0 0 1 .716.143z"/></symbol><symbol id="audio" viewBox="0 0 32 32"><path d="M3.613 16.5v-1a1 1 0 0 1 1-1h1.581m-2.581 2v11m0-11H2.065m1.548 11v1a1 1 0 0 0 1 1h2.129a1 1 0 0 0 1-1v-13a1 1 0 0 0-1-1h-.548m-2.581 13H1.516a1 1 0 0 1-1-1v-9a1 1 0 0 1 1-1h.548m4.13-2c0-2.5 2.065-9 9.806-9s9.806 6.5 9.806 9m2.581 2v-1a1 1 0 0 0-1-1h-1.581m2.581 2v11m0-11h1.548m-1.548 11v1a1 1 0 0 1-1 1h-2.129a1 1 0 0 1-1-1v-13a1 1 0 0 1 1-1h.548m2.581 13h2.097a1 1 0 0 0 1-1v-9a1 1 0 0 0-1-1h-.548m0 0C29.936 13 28.388 2 16 2S2.065 14 2.065 16.5"/></symbol><symbol id="hair" viewBox="0 0 32 32"><path d="M0 10.586C0 6.309 3.761 3.007 8.002 3.56l14.692 1.916A1.5 1.5 0 0 1 24 6.963v7.244a1.5 1.5 0 0 1-1.306 1.487l-11.577 1.51 1.9 7.833a2.5 2.5 0 0 1-1.823 3.015l-2.126.532a2.5 2.5 0 0 1-3.034-1.827l-2.468-10.02a7.076 7.076 0 0 1-3.567-6.151zm4.728 6.685 2.278 9.247a1.5 1.5 0 0 0 1.82 1.096l2.126-.532a1.5 1.5 0 0 0 1.094-1.809l-1.926-7.938-2.118.276a7.052 7.052 0 0 1-3.274-.341zM7.872 4.552C4.23 4.077 1 6.913 1 10.586a6.078 6.078 0 0 0 3.235 5.378 6.045 6.045 0 0 0 3.638.656l14.692-1.916a.5.5 0 0 0 .435-.496V6.964a.5.5 0 0 0-.435-.496L7.873 4.552zM7.5 7.586a3 3 0 1 0 0 6 3 3 0 0 0 0-6zm-4 3a4 4 0 1 1 8 0 4 4 0 0 1-8 0zm21.5-2.5a.5.5 0 0 1 .5-.5c1.002 0 1.515.686 1.87 1.16l.03.04c.394.525.63.8 1.1.8s.706-.274 1.1-.8l.03-.04c.355-.474.868-1.16 1.87-1.16a.5.5 0 0 1 0 1c-.47 0-.706.274-1.1.8l-.03.04c-.355.474-.868 1.16-1.87 1.16s-1.515-.686-1.87-1.16l-.03-.04c-.394-.525-.63-.8-1.1-.8a.5.5 0 0 1-.5-.5zm0 4a.5.5 0 0 1 .5-.5c1.002 0 1.515.686 1.87 1.16l.03.04c.394.525.63.8 1.1.8s.706-.274 1.1-.8l.03-.04c.355-.474.868-1.16 1.87-1.16a.5.5 0 0 1 0 1c-.47 0-.706.274-1.1.8l-.03.04c-.355.474-.868 1.16-1.87 1.16s-1.515-.686-1.87-1.16l-.03-.04c-.394-.525-.63-.8-1.1-.8a.5.5 0 0 1-.5-.5z"/></symbol><symbol id="smartphone" viewBox="0 0 32 32"><path d="M6.5 3.5A3.5 3.5 0 0 1 10 0h12a3.5 3.5 0 0 1 3.5 3.5v25A3.5 3.5 0 0 1 22 32H10a3.5 3.5 0 0 1-3.5-3.5v-25zM10 1a2.5 2.5 0 0 0-2.5 2.5v1h17v-1A2.5 2.5 0 0 0 22 1H10zm14.5 4.5h-17v21h17v-21zm0 22h-17v1A2.5 2.5 0 0 0 10 31h12a2.5 2.5 0 0 0 2.5-2.5v-1zM14 3a.5.5 0 0 1 .5-.5h3a.5.5 0 0 1 0 1h-3A.5.5 0 0 1 14 3zm1 26a.5.5 0 0 1 .5-.5h1a.5.5 0 0 1 0 1h-1a.5.5 0 0 1-.5-.5z"/></symbol><symbol id="watch" viewBox="0 0 32 32"><path d="M12.876 1h6.249a.5.5 0 0 1 .496.434L20.43 7.5h-8.858l.809-6.066A.5.5 0 0 1 12.877 1zm8.562 6.5H22a2.5 2.5 0 0 1 2.46 2.053 2.001 2.001 0 0 1 .04 3.884V15.5A1.5 1.5 0 0 1 26 17v3a1.5 1.5 0 0 1-1.5 1.5v.5a2.5 2.5 0 0 1-2.5 2.5h-.562l-.826 6.198A1.5 1.5 0 0 1 19.125 32h-6.249a1.5 1.5 0 0 1-1.487-1.302l-.826-6.198h-.562a2.5 2.5 0 0 1-2.5-2.5V10a2.5 2.5 0 0 1 2.5-2.5h.562l.826-6.198A1.5 1.5 0 0 1 12.876 0h6.249a1.5 1.5 0 0 1 1.487 1.302l.826 6.198zm3.062 3.134a1 1 0 0 1 0 1.732v-1.732zm0 5.866a.5.5 0 0 1 .5.5v3a.5.5 0 0 1-.5.5v-4zm-4.071 8h-8.858l.809 6.066a.5.5 0 0 0 .496.434h6.249a.5.5 0 0 0 .496-.434l.809-6.066zM10 8.5A1.5 1.5 0 0 0 8.5 10v12a1.5 1.5 0 0 0 1.5 1.5h12a1.5 1.5 0 0 0 1.5-1.5V10A1.5 1.5 0 0 0 22 8.5H10z"/></symbol><symbol id="tv" viewBox="0 0 32 32"><path d="M0 5a2.5 2.5 0 0 1 2.5-2.5h27A2.5 2.5 0 0 1 32 5v18a2.5 2.5 0 0 1-2.5 2.5H18.25v1.583l7.84 1.425a.5.5 0 0 1-.178.984L17.706 28h-3.41L6.09 29.492a.5.5 0 0 1-.179-.984l7.839-1.425V25.5H2.5A2.5 2.5 0 0 1 0 23V5zm14.75 20.5V27h2.5v-1.5h-2.5zM2.5 3.5A1.5 1.5 0 0 0 1 5v18a1.5 1.5 0 0 0 1.5 1.5h27A1.5 1.5 0 0 0 31 23V5a1.5 1.5 0 0 0-1.5-1.5h-27z"/></symbol><symbol id="washing-machine" viewBox="0 0 32 32"><path d="M4 2.5A2.5 2.5 0 0 1 6.5 0h19A2.5 2.5 0 0 1 28 2.5v27a2.5 2.5 0 0 1-2.5 2.5h-19A2.5 2.5 0 0 1 4 29.5v-27zM6.5 1A1.5 1.5 0 0 0 5 2.5v4h14.5a.5.5 0 0 1 0 1H5v22A1.5 1.5 0 0 0 6.5 31h19a1.5 1.5 0 0 0 1.5-1.5v-22h-4.5a.5.5 0 0 1 0-1H27v-4A1.5 1.5 0 0 0 25.5 1H25v1a2.5 2.5 0 0 1-2.5 2.5H19A2.5 2.5 0 0 1 16.5 2V1h-10zm11 0v1A1.5 1.5 0 0 0 19 3.5h3.5A1.5 1.5 0 0 0 24 2V1h-6.5zm-10 3a.5.5 0 0 1 .5-.5h5a.5.5 0 0 1 0 1H8a.5.5 0 0 1-.5-.5zm8.5 9.5a6.5 6.5 0 1 0 0 13 6.5 6.5 0 0 0 0-13zM8.5 20a7.5 7.5 0 1 1 15 0 7.5 7.5 0 0 1-15 0z"/></symbol><symbol id="travel" viewBox="0 0 32 32"><path d="M13.458 2.84a1.267 1.267 0 0 1 1.735.456L16 4.68l.807-1.384a1.27 1.27 0 0 1 2.19 1.281l-1.502 2.574 12.847 19.218c.846 1.266-.06 2.964-1.581 2.964H3.238c-1.521 0-2.427-1.699-1.581-2.964L14.504 7.151l-1.502-2.574a1.272 1.272 0 0 1 .455-1.737zM16 9.48 4.426 26.794h5.756l3.602-6.482c.967-1.74 3.466-1.74 4.432 0l3.602 6.482h5.756L16 9.48zm2.916 17.313L16 21.546l-2.916 5.247h5.831z"/></symbol><symbol id="home-tools" viewBox="0 0 32 32"><path d="M24 13.333a2.667 2.667 0 0 0 2.667-2.667h2.667a1.333 1.333 0 0 0 0-2.666h-2.667A2.667 2.667 0 0 0 24 5.333h-4.114A2 2 0 0 0 18 4H6.667a5.333 5.333 0 0 0-.026 10.666l-1.067 5.333h-.907a2 2 0 0 0-2 2v4.267c0 .957.776 1.733 1.733 1.733h11.2c.957 0 1.733-.776 1.733-1.733v-4.267a2 2 0 0 0-2-2h-1.707l1.014-5.072c.018-.088.026-.175.026-.261h3.333a2 2 0 0 0 1.886-1.333h4.114zM20 8h4v2.667h-4V8zm-8.026 6.667L10.907 20H8.293l1.014-5.072c.018-.088.026-.175.026-.261h2.64zm.053 8H5.334v2.667h9.333v-2.667h-2.64zM17.333 12H6.666a2.667 2.667 0 1 1 0-5.334h10.667v5.333z"/></symbol><symbol id="home-living" viewBox="0 0 32 32"><path d="M15.057 3.057a1.333 1.333 0 0 1 1.886 0l12 12A1.334 1.334 0 0 1 28 17.333h-1.333v8a4.001 4.001 0 0 1-4 4H9.334a4.001 4.001 0 0 1-4-4v-8H4.001a1.335 1.335 0 0 1-.943-2.276l12-12zM7.135 14.751C7.641 14.94 8 15.428 8 16v9.333a1.335 1.335 0 0 0 1.334 1.334h1.333V20a4.003 4.003 0 0 1 4-4h2.667a4.001 4.001 0 0 1 4 4v6.667h1.333a1.334 1.334 0 0 0 1.334-1.334V16c0-.572.36-1.059.865-1.249l-8.865-8.865-8.865 8.865zm11.532 11.916V20a1.334 1.334 0 0 0-1.334-1.334h-2.667A1.334 1.334 0 0 0 13.332 20v6.667h5.333z"/></symbol><symbol id="children" viewBox="0 0 32 32"><path d="M24.724 2.668c.492-.022.954.243 1.193.685l3.252 6c.282.52.193 1.169-.217 1.59l-1.951 2a1.279 1.279 0 0 1-1.502.25l-1.438-.737-.508 1.042 2.075 9.037.277-.231c.555-.468 1.374-.387 1.831.182s.377 1.409-.177 1.877c-3.849 3.249-7.817 4.971-11.884 4.971S7.64 27.612 3.791 24.363c-.555-.468-.634-1.308-.177-1.877s1.276-.65 1.831-.182l.239.2 1.88-9.152a2.574 2.574 0 0 0-1.533.763 2.7 2.7 0 0 0-.762 1.886c0 .736-.582 1.333-1.301 1.333s-1.301-.597-1.301-1.333c0-1.415.548-2.771 1.524-3.771s2.299-1.562 3.679-1.562h6.884c.569-1.632 1.27-3.427 2.53-4.878 1.571-1.808 3.879-2.963 7.44-3.121zM10.226 13.333 7.995 24.196c.559.357 1.115.674 1.668.952l2.202-5.643a1.302 1.302 0 0 1 1.208-.838h5.203c.532 0 1.01.332 1.208.838l2.202 5.643a18.614 18.614 0 0 0 1.652-.942l-2.426-10.568a1.363 1.363 0 0 1 .103-.902l1.301-2.667a1.285 1.285 0 0 1 1.745-.596l1.763.904.594-.609-2.374-4.38c-2.505.25-3.899 1.117-4.817 2.174-1.073 1.235-1.631 2.859-2.299 4.804l-.026.077c-.183.533-.675.89-1.227.89h-5.449zm9.039 12.79-1.869-4.79h-3.442l-1.869 4.79c1.21.365 2.406.544 3.59.544s2.38-.178 3.59-.544z"/></symbol><symbol id="perfumes" viewBox="0 0 32 32"><path d="M10.667 4c0-.736.597-1.333 1.333-1.333h8c.736 0 1.333.597 1.333 1.333v4c0 .736-.597 1.333-1.333 1.333v1.333h2.667a4.003 4.003 0 0 1 4 4v10.667a4.001 4.001 0 0 1-4 4H9.334a4.001 4.001 0 0 1-4-4V14.666a4.003 4.003 0 0 1 4-4h2.667V9.333A1.333 1.333 0 0 1 10.668 8V4zm4 5.333v1.333h2.667V9.333h-2.667zm4-2.666h-5.333V5.334h5.333v1.333zm-9.334 6.666a1.334 1.334 0 0 0-1.334 1.334v10.667a1.335 1.335 0 0 0 1.334 1.334h13.333A1.334 1.334 0 0 0 24 25.334V14.667a1.334 1.334 0 0 0-1.334-1.334H9.333zm3.839 3.839a4.001 4.001 0 0 1 5.656 0 4 4 0 1 1-5.656 0zM16 18.667a1.334 1.334 0 1 0 0 2.667 1.334 1.334 0 0 0 0-2.667z"/></symbol><symbol id="sale" viewBox="0 0 32 32"><path d="m20.512 12.192-9.664 7.68c-.192.16-.256.48-.064.672a.456.456 0 0 0 .384.192c.096 0 .224-.032.288-.096l9.664-7.68c.192-.16.256-.48.064-.672-.16-.224-.448-.256-.672-.096zm-7.072 3.424c.128 0 .256 0 .384-.032A2.411 2.411 0 0 0 15.84 12.8c-.096-.64-.448-1.216-.96-1.6s-1.152-.544-1.792-.448c-.64.096-1.216.448-1.6.96s-.544 1.152-.448 1.792c.192 1.248 1.248 2.112 2.4 2.112zm-.224-3.872c.064 0 .16-.032.224-.032.704 0 1.344.512 1.44 1.248.128.8-.416 1.536-1.216 1.664s-1.536-.416-1.664-1.216c-.128-.8.448-1.536 1.216-1.664zm5.344 5.472c-1.344 0-2.432 1.088-2.432 2.432s1.088 2.432 2.432 2.432 2.432-1.088 2.432-2.432c-.032-1.344-1.12-2.432-2.432-2.432zm0 3.872c-.8 0-1.472-.672-1.472-1.472s.672-1.472 1.472-1.472 1.472.672 1.472 1.472c-.032.832-.672 1.472-1.472 1.472z"/><path d="M30.528 16.096c0-.032.032-.096.032-.128 0-1.376-1.44-2.08-2.688-2.688-.896-.448-1.856-.928-2.112-1.504-.256-.608.096-1.6.448-2.528.48-1.312.96-2.656.064-3.552s-2.176-.576-3.456-.288c-.896.192-1.824.416-2.432.16s-1.12-1.056-1.6-1.824c-.704-1.088-1.472-2.336-2.816-2.336s-2.112 1.248-2.784 2.368c-.48.8-.96 1.6-1.568 1.856s-1.568.032-2.464-.192c-1.28-.32-2.592-.64-3.456.224-.896.896-.448 2.24-.032 3.552.32.96.608 1.92.352 2.56-.256.608-1.152 1.056-2.016 1.504-1.216.64-2.592 1.344-2.592 2.688 0 .032 0 .096.032.128 0 .032-.032.096-.032.128 0 1.344 1.376 2.08 2.592 2.688.864.448 1.76.896 2.016 1.504s-.064 1.6-.352 2.56c-.416 1.312-.864 2.656.032 3.552s2.208.544 3.456.224c.896-.224 1.856-.448 2.464-.192s1.088 1.056 1.568 1.856c.672 1.12 1.44 2.368 2.784 2.368s2.144-1.248 2.816-2.336c.48-.768.992-1.568 1.6-1.824.64-.256 1.536-.064 2.432.16 1.248.288 2.56.608 3.456-.288s.416-2.24-.064-3.552c-.352-.96-.704-1.92-.448-2.528s1.184-1.056 2.112-1.504c1.248-.64 2.688-1.344 2.688-2.688 0-.064-.032-.096-.032-.128zm-3.104 1.952c-1.056.544-2.176 1.088-2.56 2.016-.416.96.032 2.112.416 3.232.384 1.056.768 2.08.288 2.528-.512.512-1.504.288-2.56.032s-2.112-.48-3.04-.096c-.896.384-1.472 1.28-2.016 2.176-.608.96-1.184 1.888-2.016 1.888-.8 0-1.376-.928-1.984-1.92-.544-.928-1.12-1.856-2.016-2.24-.928-.384-2.016-.128-3.072.16-1.056.256-2.048.512-2.56.032-.48-.48-.16-1.504.192-2.56.352-1.12.736-2.272.32-3.2-.384-.928-1.44-1.472-2.464-1.984-1.056-.544-2.048-1.056-2.048-1.856 0-.032 0-.096-.032-.128 0-.032.032-.096.032-.128 0-.768.992-1.28 2.048-1.856 1.024-.512 2.08-1.056 2.464-1.984.384-.96.032-2.112-.32-3.2s-.672-2.112-.192-2.56c.512-.512 1.504-.256 2.56.032 1.056.256 2.144.544 3.072.16.896-.384 1.472-1.312 2.016-2.24.608-.992 1.152-1.92 1.984-1.92s1.408.928 2.016 1.888c.576.896 1.152 1.792 2.016 2.176.928.384 1.984.128 3.04-.096 1.056-.256 2.048-.48 2.56.032.48.448.096 1.472-.288 2.528-.416 1.12-.832 2.272-.416 3.232.384.928 1.504 1.472 2.56 2.016 1.12.544 2.144 1.088 2.144 1.856 0 .032 0 .096.032.128 0 .032-.032.096-.032.128.032.64-1.024 1.184-2.144 1.728z"/></symbol><symbol id="icon-phone" viewBox="0 0 32 32"><path d="M22 20c-2 2-2 4-4 4s-4-2-6-4-4-4-4-6 2-2 4-4-4-8-6-8-6 6-6 6c0 4 4.109 12.109 8 16s12 8 16 8c0 0 6-4 6-6s-6-8-8-6z"/></symbol><symbol id="down_arrow" viewBox="0 0 32 32"><path d="M24.788 10 26 11.294 16 22 6 11.294 7.206 10 16 19.406z"/></symbol><symbol id="balance" viewBox="0 0 32 32"><path d="M30.575 18.182h-.441l-3.278-7.118c.48-.359.8-.926.8-1.571a1.968 1.968 0 0 0-1.964-1.964c-.693 0-1.299.364-1.648.902h-3.418a4.966 4.966 0 0 0-3.21-3.021V4.358h.558a.7.7 0 0 0 .543-1.144L16.544.829a.714.714 0 0 0-.543-.252.694.694 0 0 0-.538.252L13.49 3.214c-.175.208-.209.495-.092.742s.359.402.635.402h.558v1.057a4.965 4.965 0 0 0-3.215 3.021H7.953a1.954 1.954 0 0 0-1.649-.902A1.968 1.968 0 0 0 4.34 9.498c0 .645.32 1.217.805 1.576l-3.278 7.108h-.441a.85.85 0 0 0 0 1.698h.087c.238 2.381 2.23 4.218 4.65 4.218s4.412-1.838 4.65-4.218h.378a.85.85 0 0 0 0-1.698h-.441l-3.278-7.118c.189-.141.354-.315.485-.514h3.122a4.944 4.944 0 0 0 3.307 4.262v11.442h-3.098c-.824 0-1.493.669-1.493 1.493v.892H8.593c-.766 0-1.387.621-1.387 1.387v.916H2.362a.239.239 0 0 0 0 .476H29.64a.239.239 0 0 0 0-.476h-4.834v-.916c0-.766-.621-1.387-1.387-1.387h-1.202v-.892c0-.824-.669-1.493-1.493-1.493h-3.098V14.812a4.943 4.943 0 0 0 3.307-4.262h3.122c.131.199.296.373.49.514l-3.287 7.118h-.441a.85.85 0 0 0 0 1.698h.087a4.674 4.674 0 0 0 4.65 4.218 4.678 4.678 0 0 0 4.65-4.218h.378a.85.85 0 0 0 .849-.849.86.86 0 0 0-.853-.849zm-6.25 11.85v.916H7.67v-.916c0-.504.412-.912.912-.912h14.827c.509 0 .916.407.916.912zm-2.589-2.279v.892H10.264v-.892c0-.562.456-1.023 1.023-1.023h9.425c.562 0 1.023.461 1.023 1.023zm3.956-19.748c.819 0 1.488.669 1.488 1.489 0 .538-.291 1.008-.722 1.27a1.45 1.45 0 0 1-.761.218 1.49 1.49 0 0 1-.756-.213h-.005a1.485 1.485 0 0 1 .757-2.763zM13.823 3.758a.223.223 0 0 1 .029-.238l1.973-2.385c.058-.073.136-.082.175-.082s.116.01.175.082l1.973 2.385a.227.227 0 0 1-.175.369h-3.951c-.131 0-.184-.102-.199-.131zm1.232.601h1.891V5.3c-.305-.058-.621-.092-.945-.092s-.635.034-.941.092v-.941zM4.819 9.493c0-.819.669-1.489 1.489-1.489s1.489.669 1.489 1.489c0 .538-.291 1.008-.722 1.27a1.45 1.45 0 0 1-.761.218 1.49 1.49 0 0 1-.756-.213h-.005a1.488 1.488 0 0 1-.732-1.275zm1.343 14.129a4.198 4.198 0 0 1-4.175-3.743h8.354a4.21 4.21 0 0 1-4.179 3.743zm5.402-4.592c0 .204-.17.373-.373.373H1.426c-.204 0-.373-.17-.373-.373s.17-.373.373-.373h9.761c.209 0 .378.17.378.373zm-1.339-.848H2.39l3.171-6.88a1.945 1.945 0 0 0 1.499 0l3.166 6.88zM8.17 8.912h3.05a4.89 4.89 0 0 0-.16 1.168H8.17a1.93 1.93 0 0 0 .097-.582 1.94 1.94 0 0 0-.097-.587zm8.969 17.343H14.86V14.953c.364.087.747.136 1.139.136s.776-.053 1.139-.141v11.307zM16 14.618c-2.405 0-4.369-1.915-4.461-4.301 0-.058-.01-.111-.01-.17 0-2.463 2.002-4.465 4.465-4.465s4.47 2.002 4.47 4.465a4.47 4.47 0 0 1-4.465 4.47zm4.941-4.538a4.89 4.89 0 0 0-.16-1.168h3.05c-.058.184-.097.378-.097.582s.039.398.097.582h-2.89zm4.004 1.227a1.945 1.945 0 0 0 1.499 0l3.166 6.88h-7.835l3.171-6.88zm.602 12.315a4.201 4.201 0 0 1-4.175-3.743h8.354a4.202 4.202 0 0 1-4.179 3.743zm5.028-4.218H20.81c-.204 0-.373-.17-.373-.373s.17-.373.373-.373h9.76c.204 0 .373.17.373.373a.366.366 0 0 1-.369.373z"/><path d="M16 6.511a3.637 3.637 0 1 0 .003 7.275A3.637 3.637 0 0 0 16 6.51zm0 6.803c-1.745 0-3.161-1.421-3.161-3.166S14.26 6.987 16 6.987a3.17 3.17 0 0 1 3.166 3.161A3.174 3.174 0 0 1 16 13.314z"/><path d="M16 8.931c.271 0 .49.218.49.49a.239.239 0 0 0 .476 0 .962.962 0 0 0-.727-.931v-.233a.239.239 0 0 0-.476 0v.233a.962.962 0 0 0 .238 1.896.489.489 0 1 1 0 .98.489.489 0 0 1-.49-.49.239.239 0 0 0-.476 0c0 .451.31.824.727.931v.233a.239.239 0 0 0 .476 0v-.233A.962.962 0 0 0 16 9.911a.489.489 0 1 1 0-.98z"/></symbol></defs></svg>